<?xml version="1.0" standalone="no"?>
<!DOCTYPE svg PUBLIC "-//W3C//DTD SVG 20010904//EN"
 "http://www.w3.org/TR/2001/REC-SVG-20010904/DTD/svg10.dtd">
<svg version="1.0" xmlns="http://www.w3.org/2000/svg"
 width="50.000000pt" height="59.000000pt" viewBox="0 0 50.000000 59.000000"
 preserveAspectRatio="xMidYMid meet">

<g transform="translate(0.000000,59.000000) scale(0.100000,-0.100000)"
fill="#000000" stroke="none">
<path d="M0 295 l0 -295 250 0 250 0 0 295 0 295 -250 0 -250 0 0 -295z m200
205 c0 -5 -13 -10 -30 -10 l-30 0 0 -80 c0 -47 -4 -80 -10 -80 -6 0 -10 33
-10 80 l0 80 -30 0 c-16 0 -30 5 -30 10 0 6 30 10 70 10 40 0 70 -4 70 -10z
m100 -30 l0 -40 55 0 55 0 0 40 c0 22 5 40 10 40 6 0 10 -37 10 -90 0 -53 -4
-90 -10 -90 -5 0 -10 18 -10 40 l0 40 -55 0 -55 0 0 -40 c0 -29 -4 -40 -15
-40 -12 0 -15 17 -15 90 0 73 3 90 15 90 11 0 15 -11 15 -40z m-110 -200 c0
-5 -20 -10 -45 -10 -43 0 -45 -1 -45 -30 0 -29 2 -30 45 -30 25 0 45 -4 45
-10 0 -5 -20 -10 -45 -10 -43 0 -45 -1 -45 -30 0 -29 2 -30 45 -30 25 0 45 -4
45 -10 0 -6 -27 -10 -60 -10 l-60 0 0 90 0 90 60 0 c33 0 60 -4 60 -10z m225
-15 c37 -36 35 -97 -5 -137 -27 -26 -36 -30 -68 -25 -50 8 -82 46 -82 98 0 55
34 89 90 89 30 0 47 -6 65 -25z"/>
<path d="M314 252 c-39 -26 -40 -100 -1 -127 31 -21 54 -19 82 10 31 30 33 77
5 105 -20 20 -65 26 -86 12z"/>
</g>
</svg>
